<svg width="19" height="17" viewBox="0 0 19 17" fill="none" xmlns="http://www.w3.org/2000/svg">
<path d="M12.4719 14.5692C12.4719 14.5692 17.4237 11.0033 17.0899 4.51635C17.0899 4.51635 18.759 3.05093 19.0001 2.40615C19.0001 2.40615 17.5721 3.03138 16.8859 2.95323C16.8859 2.95323 18.5179 1.70272 18.4252 0.686712C18.4252 0.686712 16.8302 1.62456 16.0513 1.70271C16.0513 1.70271 13.1211 -0.895963 10.4133 1.5464C10.4133 1.5464 9.07801 2.67966 9.33768 5.49329C9.33768 5.49329 5.26047 5.49329 1.36289 1.23378C1.36289 1.23378 -0.194976 4.63359 2.54981 6.64609C2.54981 6.64609 1.67818 6.86101 0.787953 6.07946C0.787953 6.07946 0.732326 9.36202 3.94076 10.2413C3.94076 10.2413 2.97639 10.5343 2.23453 10.339C2.23453 10.339 2.88366 12.9767 5.79536 13.1135C5.79536 13.1135 3.95932 15.2237 0.250122 14.8329C0.250115 14.8329 5.15555 19.3171 12.4719 14.5692Z" fill="#D86F38"/>
</svg>
