<svg width="10" height="20" viewBox="0 0 10 20" fill="none" xmlns="http://www.w3.org/2000/svg">
<path d="M9.6234 0.755802L7.22482 0.751953C4.53009 0.751953 2.78864 2.53864 2.78864 5.30402V7.40283H0.376971C0.168574 7.40283 -0.000183105 7.57178 -0.000183105 7.78018V10.8211C-0.000183105 11.0295 0.168767 11.1983 0.376971 11.1983H2.78864V18.8715C2.78864 19.0799 2.9574 19.2487 3.16579 19.2487H6.31234C6.52073 19.2487 6.68949 19.0797 6.68949 18.8715V11.1983H9.50929C9.71769 11.1983 9.88645 11.0295 9.88645 10.8211L9.8876 7.78018C9.8876 7.68011 9.84777 7.58429 9.77715 7.51347C9.70653 7.44266 9.61032 7.40283 9.51026 7.40283H6.68949V5.62364C6.68949 4.76849 6.89327 4.33438 8.00722 4.33438L9.62302 4.3338C9.83122 4.3338 9.99998 4.16485 9.99998 3.95664V1.13296C9.99998 0.924946 9.83141 0.756187 9.6234 0.755802Z" fill="#D86F38"/>
</svg>
