<svg width="23" height="24" viewBox="0 0 23 24" fill="none" xmlns="http://www.w3.org/2000/svg">
<path d="M11.4719 23.25C11.3974 23.25 11.3229 23.25 11.2479 23.2497C9.48414 23.2539 7.85449 23.2091 6.26966 23.1127C4.81666 23.0243 3.49035 22.5222 2.43391 21.6608C1.41454 20.8296 0.71843 19.7057 0.364966 18.3207C0.0573371 17.115 0.0410286 15.9314 0.0254069 14.7866C0.0140767 13.9652 0.00240335 12.9918 0 12.002C0.00240335 11.0081 0.0140767 10.0348 0.0254069 9.21338C0.0410286 8.06874 0.0573371 6.88513 0.364966 5.67921C0.71843 4.29424 1.41454 3.17037 2.43391 2.33918C3.49035 1.47778 4.81666 0.975672 6.26983 0.887266C7.85467 0.790964 9.48465 0.745989 11.2521 0.75028C13.0164 0.746504 14.6455 0.790964 16.2303 0.887266C17.6833 0.975672 19.0096 1.47778 20.0661 2.33918C21.0856 3.17037 21.7816 4.29424 22.135 5.67921C22.4427 6.88496 22.459 8.06874 22.4746 9.21338C22.4859 10.0348 22.4978 11.0081 22.5 11.9979V12.002C22.4978 12.9918 22.4859 13.9652 22.4746 14.7866C22.459 15.9312 22.4428 17.1148 22.135 18.3207C21.7816 19.7057 21.0856 20.8296 20.0661 21.6608C19.0096 22.5222 17.6833 23.0243 16.2303 23.1127C14.7126 23.205 13.1535 23.25 11.4719 23.25ZM11.2479 21.4918C12.9829 21.496 14.576 21.4522 16.1236 21.3581C17.2222 21.2913 18.1748 20.9348 18.9552 20.2984C19.6766 19.7102 20.1734 18.8985 20.4317 17.8861C20.6879 16.8824 20.7026 15.8047 20.7169 14.7625C20.728 13.9466 20.7397 12.9802 20.7421 12C20.7397 11.0196 20.728 10.0533 20.7169 9.23741C20.7026 8.19525 20.6879 7.11756 20.4317 6.11368C20.1734 5.10122 19.6766 4.2896 18.9552 3.70132C18.1748 3.06514 17.2222 2.7086 16.1236 2.64182C14.576 2.54758 12.9829 2.50415 11.252 2.50793C9.51727 2.50381 7.92402 2.54758 6.37643 2.64182C5.27776 2.7086 4.32517 3.06514 3.54477 3.70132C2.82342 4.2896 2.32662 5.10122 2.06826 6.11368C1.81213 7.11756 1.79736 8.19508 1.78311 9.23741C1.77196 10.054 1.76028 11.021 1.75788 12.002C1.76028 12.9788 1.77196 13.9459 1.78311 14.7625C1.79736 15.8047 1.81213 16.8824 2.06826 17.8861C2.32662 18.8985 2.82342 19.7102 3.54477 20.2984C4.32517 20.9346 5.27776 21.2912 6.37643 21.3579C7.92402 21.4522 9.51761 21.4961 11.2479 21.4918ZM11.206 17.4931C8.17706 17.4931 5.71259 15.0289 5.71259 12C5.71259 8.97099 8.17706 6.50679 11.206 6.50679C14.235 6.50679 16.6993 8.97099 16.6993 12C16.6993 15.0289 14.235 17.4931 11.206 17.4931ZM11.206 8.26461C9.1463 8.26461 7.47047 9.94037 7.47047 12C7.47047 14.0596 9.1463 15.7353 11.206 15.7353C13.2658 15.7353 14.9415 14.0596 14.9415 12C14.9415 9.94037 13.2658 8.26461 11.206 8.26461ZM17.3146 4.74897C16.5866 4.74897 15.9962 5.33915 15.9962 6.06733C15.9962 6.79552 16.5866 7.3857 17.3146 7.3857C18.0428 7.3857 18.633 6.79552 18.633 6.06733C18.633 5.33915 18.0428 4.74897 17.3146 4.74897Z" fill="#D86F38"/>
</svg>
