<svg width="22" height="14" viewBox="0 0 22 14" fill="none" xmlns="http://www.w3.org/2000/svg">
<path d="M10.8349 0.688864C11.1079 0.836142 11.2781 1.11619 11.2781 1.42079V6.16381H20.6433C21.1162 6.16381 21.5 6.5387 21.5 7.00062C21.5 7.46254 21.1162 7.83743 20.6433 7.83743H11.2781V12.5805C11.2781 12.8862 11.1079 13.1662 10.8349 13.3124C10.562 13.4608 10.2284 13.4507 9.96456 13.2889L0.899782 7.70912C0.650776 7.55515 0.5 7.28848 0.5 7.00062C0.5 6.71276 0.650776 6.4461 0.899782 6.29212L9.96456 0.712295C10.1039 0.627498 10.2627 0.583984 10.4215 0.583984C10.5631 0.583984 10.7059 0.619688 10.8349 0.688864Z" fill="#D86F38"/>
</svg>
