<svg width="153" height="154" viewBox="0 0 153 154" fill="none" xmlns="http://www.w3.org/2000/svg">
<g opacity="0.7">
<circle cx="76.5" cy="77.25" r="76.5" fill="#FFDAC7"/>
<path d="M58.1874 53.9961C61.688 53.9961 64.5885 55.1463 66.889 57.4467C69.1894 59.7471 70.3396 62.7477 70.3396 66.4484C70.3396 68.0487 70.0895 69.749 69.5895 71.5493C69.1894 73.2496 68.2892 75.8501 66.889 79.3507L59.2376 100.505H47.0853L53.0864 77.5504C50.886 76.6502 49.1357 75.25 47.8355 73.3496C46.6353 71.3493 46.0352 69.0488 46.0352 66.4484C46.0352 62.7477 47.1854 59.7471 49.4858 57.4467C51.7862 55.1463 54.6867 53.9961 58.1874 53.9961Z" fill="white"/>
<path d="M94.8152 53.9961C98.3158 53.9961 101.216 55.1463 103.517 57.4467C105.817 59.7471 106.967 62.7477 106.967 66.4484C106.967 68.0487 106.717 69.749 106.217 71.5493C105.817 73.2496 104.917 75.8501 103.517 79.3507L95.8653 100.505H83.7131L89.7142 77.5504C87.5138 76.6502 85.7635 75.25 84.4633 73.3496C83.263 71.3493 82.6629 69.0488 82.6629 66.4484C82.6629 62.7477 83.8131 59.7471 86.1136 57.4467C88.414 55.1463 91.3145 53.9961 94.8152 53.9961Z" fill="white"/>
</g>
</svg>
