<svg width="657" height="172" viewBox="0 0 657 172" fill="none" xmlns="http://www.w3.org/2000/svg">
<path d="M0.6 65V9H16.44V52.44H43.16V65H0.6ZM71.2719 65.72C66.1519 65.72 61.6719 64.76 57.8319 62.84C54.0452 60.8667 51.0852 58.2 48.9519 54.84C46.8719 51.4267 45.8319 47.56 45.8319 43.24C45.8319 38.92 46.8452 35.08 48.8719 31.72C50.9519 28.3067 53.8052 25.6667 57.4319 23.8C61.0585 21.88 65.1385 20.92 69.6719 20.92C73.9385 20.92 77.8319 21.8 81.3519 23.56C84.8719 25.2667 87.6719 27.8 89.7519 31.16C91.8319 34.52 92.8719 38.6 92.8719 43.4C92.8719 43.9333 92.8452 44.5467 92.7919 45.24C92.7385 45.9333 92.6852 46.5733 92.6319 47.16H58.3119V39.16H84.5519L78.7919 41.4C78.8452 39.4267 78.4719 37.72 77.6719 36.28C76.9252 34.84 75.8585 33.72 74.4719 32.92C73.1385 32.12 71.5652 31.72 69.7519 31.72C67.9385 31.72 66.3385 32.12 64.9519 32.92C63.6185 33.72 62.5785 34.8667 61.8319 36.36C61.0852 37.8 60.7119 39.5067 60.7119 41.48V43.8C60.7119 45.9333 61.1385 47.7733 61.9919 49.32C62.8985 50.8667 64.1785 52.0667 65.8319 52.92C67.4852 53.72 69.4585 54.12 71.7519 54.12C73.8852 54.12 75.6985 53.8267 77.1919 53.24C78.7385 52.6 80.2585 51.64 81.7519 50.36L89.7519 58.68C87.6719 60.9733 85.1119 62.7333 82.0719 63.96C79.0319 65.1333 75.4319 65.72 71.2719 65.72ZM119.24 65.72C113.693 65.72 109.373 64.36 106.28 61.64C103.187 58.8667 101.64 54.7067 101.64 49.16V11.96H116.84V49C116.84 50.5467 117.267 51.7733 118.12 52.68C118.973 53.5333 120.067 53.96 121.4 53.96C123.213 53.96 124.76 53.5067 126.04 52.6L129.8 63.24C128.52 64.0933 126.947 64.7067 125.08 65.08C123.213 65.5067 121.267 65.72 119.24 65.72ZM95.32 34.6V23.24H126.76V34.6H95.32ZM135.021 32.36L134.061 9H146.861L145.821 32.36H135.021ZM170.796 65.72C167.116 65.72 163.516 65.2933 159.996 64.44C156.53 63.5867 153.73 62.52 151.596 61.24L156.156 50.84C158.183 52.0667 160.556 53.0533 163.276 53.8C165.996 54.4933 168.663 54.84 171.276 54.84C173.836 54.84 175.596 54.5733 176.556 54.04C177.57 53.5067 178.076 52.7867 178.076 51.88C178.076 51.0267 177.596 50.4133 176.636 50.04C175.73 49.6133 174.503 49.2933 172.956 49.08C171.463 48.8667 169.81 48.6267 167.996 48.36C166.183 48.0933 164.343 47.7467 162.476 47.32C160.663 46.84 158.983 46.1467 157.436 45.24C155.943 44.28 154.743 43 153.836 41.4C152.93 39.8 152.476 37.7733 152.476 35.32C152.476 32.5467 153.276 30.0933 154.876 27.96C156.53 25.7733 158.93 24.0667 162.076 22.84C165.223 21.56 169.063 20.92 173.596 20.92C176.636 20.92 179.703 21.24 182.796 21.88C185.943 22.4667 188.583 23.3733 190.716 24.6L186.156 34.92C184.023 33.6933 181.89 32.8667 179.756 32.44C177.623 31.96 175.596 31.72 173.676 31.72C171.116 31.72 169.303 32.0133 168.236 32.6C167.223 33.1867 166.716 33.9067 166.716 34.76C166.716 35.6133 167.17 36.28 168.076 36.76C168.983 37.1867 170.183 37.5333 171.676 37.8C173.223 38.0133 174.903 38.2533 176.716 38.52C178.53 38.7333 180.343 39.08 182.156 39.56C184.023 40.04 185.703 40.76 187.196 41.72C188.743 42.6267 189.97 43.88 190.876 45.48C191.783 47.0267 192.236 49.0267 192.236 51.48C192.236 54.1467 191.41 56.5467 189.756 58.68C188.156 60.8133 185.756 62.52 182.556 63.8C179.41 65.08 175.49 65.72 170.796 65.72ZM222.788 65V9H251.428C258.788 9 264.281 10.36 267.908 13.08C271.534 15.7467 273.348 19.2667 273.348 23.64C273.348 26.52 272.574 29.0533 271.028 31.24C269.534 33.3733 267.401 35.08 264.628 36.36C261.908 37.5867 258.654 38.2 254.868 38.2L256.468 34.36C260.414 34.36 263.854 34.9733 266.788 36.2C269.721 37.3733 271.988 39.1067 273.588 41.4C275.241 43.64 276.068 46.3867 276.068 49.64C276.068 54.4933 274.094 58.28 270.148 61C266.254 63.6667 260.548 65 253.028 65H222.788ZM238.468 53.56H251.748C254.468 53.56 256.521 53.1067 257.908 52.2C259.348 51.24 260.068 49.8 260.068 47.88C260.068 45.96 259.348 44.5467 257.908 43.64C256.521 42.68 254.468 42.2 251.748 42.2H237.348V31.24H249.348C252.014 31.24 254.014 30.7867 255.348 29.88C256.681 28.9733 257.348 27.6133 257.348 25.8C257.348 23.9867 256.681 22.6533 255.348 21.8C254.014 20.8933 252.014 20.44 249.348 20.44H238.468V53.56ZM301.792 65.72C298.272 65.72 295.099 65.0267 292.272 63.64C289.499 62.2533 287.312 60.0933 285.712 57.16C284.165 54.1733 283.392 50.4133 283.392 45.88V21.64H298.592V43.4C298.592 46.76 299.205 49.16 300.432 50.6C301.712 52.04 303.499 52.76 305.792 52.76C307.285 52.76 308.645 52.4133 309.872 51.72C311.099 51.0267 312.085 49.9333 312.832 48.44C313.579 46.8933 313.952 44.92 313.952 42.52V21.64H329.152V65H314.672V52.76L317.472 56.2C315.979 59.4 313.819 61.8 310.992 63.4C308.165 64.9467 305.099 65.72 301.792 65.72ZM338.943 65V21.64H354.143V65H338.943ZM346.543 16.84C343.769 16.84 341.529 16.0667 339.823 14.52C338.116 12.9733 337.263 11.0533 337.263 8.76C337.263 6.46666 338.116 4.54666 339.823 3C341.529 1.45333 343.769 0.679998 346.543 0.679998C349.316 0.679998 351.556 1.42666 353.263 2.92C354.969 4.36 355.823 6.22667 355.823 8.52C355.823 10.92 354.969 12.92 353.263 14.52C351.609 16.0667 349.369 16.84 346.543 16.84ZM364.021 65V5.64H379.221V65H364.021ZM407.979 65.72C404.032 65.72 400.432 64.8133 397.179 63C393.979 61.1333 391.419 58.5467 389.499 55.24C387.579 51.88 386.619 47.88 386.619 43.24C386.619 38.6533 387.579 34.7067 389.499 31.4C391.419 28.04 393.979 25.4533 397.179 23.64C400.432 21.8267 404.032 20.92 407.979 20.92C411.712 20.92 414.859 21.72 417.419 23.32C420.032 24.92 422.005 27.3733 423.339 30.68C424.672 33.9867 425.339 38.1733 425.339 43.24C425.339 48.4133 424.699 52.6533 423.419 55.96C422.139 59.2667 420.219 61.72 417.659 63.32C415.099 64.92 411.872 65.72 407.979 65.72ZM411.179 53.64C412.885 53.64 414.405 53.24 415.739 52.44C417.125 51.64 418.219 50.4667 419.019 48.92C419.819 47.32 420.219 45.4267 420.219 43.24C420.219 41.0533 419.819 39.2133 419.019 37.72C418.219 36.1733 417.125 35 415.739 34.2C414.405 33.4 412.885 33 411.179 33C409.419 33 407.845 33.4 406.459 34.2C405.125 35 404.059 36.1733 403.259 37.72C402.459 39.2133 402.059 41.0533 402.059 43.24C402.059 45.4267 402.459 47.32 403.259 48.92C404.059 50.4667 405.125 51.64 406.459 52.44C407.845 53.24 409.419 53.64 411.179 53.64ZM420.699 65V57.56L420.779 43.24L419.979 28.92V5.64H435.179V65H420.699ZM483.119 65V41.32L486.799 50.84L461.759 9H478.479L496.559 39.32H486.879L505.039 9H520.399L495.439 50.84L498.959 41.32V65H483.119ZM540.703 65.72C535.956 65.72 531.743 64.76 528.063 62.84C524.383 60.92 521.476 58.28 519.342 54.92C517.263 51.5067 516.223 47.6133 516.223 43.24C516.223 38.8667 517.263 35 519.342 31.64C521.476 28.28 524.383 25.6667 528.063 23.8C531.743 21.88 535.956 20.92 540.703 20.92C545.449 20.92 549.663 21.88 553.343 23.8C557.076 25.6667 559.983 28.28 562.063 31.64C564.143 35 565.183 38.8667 565.183 43.24C565.183 47.6133 564.143 51.5067 562.063 54.92C559.983 58.28 557.076 60.92 553.343 62.84C549.663 64.76 545.449 65.72 540.703 65.72ZM540.703 53.64C542.463 53.64 544.009 53.24 545.343 52.44C546.729 51.64 547.823 50.4667 548.623 48.92C549.423 47.32 549.823 45.4267 549.823 43.24C549.823 41.0533 549.423 39.2133 548.623 37.72C547.823 36.1733 546.729 35 545.343 34.2C544.009 33.4 542.463 33 540.703 33C538.996 33 537.449 33.4 536.063 34.2C534.729 35 533.636 36.1733 532.783 37.72C531.983 39.2133 531.583 41.0533 531.583 43.24C531.583 45.4267 531.983 47.32 532.783 48.92C533.636 50.4667 534.729 51.64 536.063 52.44C537.449 53.24 538.996 53.64 540.703 53.64ZM590.464 65.72C586.944 65.72 583.77 65.0267 580.944 63.64C578.17 62.2533 575.984 60.0933 574.384 57.16C572.837 54.1733 572.064 50.4133 572.064 45.88V21.64H587.264V43.4C587.264 46.76 587.877 49.16 589.104 50.6C590.384 52.04 592.17 52.76 594.464 52.76C595.957 52.76 597.317 52.4133 598.544 51.72C599.77 51.0267 600.757 49.9333 601.504 48.44C602.25 46.8933 602.624 44.92 602.624 42.52V21.64H617.824V65H603.344V52.76L606.144 56.2C604.65 59.4 602.49 61.8 599.664 63.4C596.837 64.9467 593.77 65.72 590.464 65.72ZM627.614 65V21.64H642.094V34.28L639.934 30.68C641.214 27.4267 643.294 25 646.174 23.4C649.054 21.7467 652.548 20.92 656.654 20.92V34.6C655.961 34.4933 655.348 34.44 654.814 34.44C654.334 34.3867 653.801 34.36 653.214 34.36C650.121 34.36 647.614 35.2133 645.694 36.92C643.774 38.5733 642.814 41.2933 642.814 45.08V65H627.614ZM0.6 171V115H27.08C33.2667 115 38.7067 116.147 43.4 118.44C48.0933 120.733 51.7467 123.96 54.36 128.12C57.0267 132.28 58.36 137.24 58.36 143C58.36 148.707 57.0267 153.667 54.36 157.88C51.7467 162.04 48.0933 165.267 43.4 167.56C38.7067 169.853 33.2667 171 27.08 171H0.6ZM16.44 158.36H26.44C29.64 158.36 32.4133 157.773 34.76 156.6C37.16 155.373 39.0267 153.613 40.36 151.32C41.6933 148.973 42.36 146.2 42.36 143C42.36 139.747 41.6933 136.973 40.36 134.68C39.0267 132.387 37.16 130.653 34.76 129.48C32.4133 128.253 29.64 127.64 26.44 127.64H16.44V158.36ZM65.9738 171V127.64H80.4538V140.28L78.2938 136.68C79.5738 133.427 81.6538 131 84.5338 129.4C87.4138 127.747 90.9071 126.92 95.0138 126.92V140.6C94.3204 140.493 93.7071 140.44 93.1738 140.44C92.6938 140.387 92.1604 140.36 91.5738 140.36C88.4804 140.36 85.9738 141.213 84.0538 142.92C82.1338 144.573 81.1738 147.293 81.1738 151.08V171H65.9738ZM123.616 171.72C118.496 171.72 114.016 170.76 110.176 168.84C106.389 166.867 103.429 164.2 101.296 160.84C99.2156 157.427 98.1756 153.56 98.1756 149.24C98.1756 144.92 99.189 141.08 101.216 137.72C103.296 134.307 106.149 131.667 109.776 129.8C113.402 127.88 117.482 126.92 122.016 126.92C126.282 126.92 130.176 127.8 133.696 129.56C137.216 131.267 140.016 133.8 142.096 137.16C144.176 140.52 145.216 144.6 145.216 149.4C145.216 149.933 145.189 150.547 145.136 151.24C145.082 151.933 145.029 152.573 144.976 153.16H110.656V145.16H136.896L131.136 147.4C131.189 145.427 130.816 143.72 130.016 142.28C129.269 140.84 128.202 139.72 126.816 138.92C125.482 138.12 123.909 137.72 122.096 137.72C120.282 137.72 118.682 138.12 117.296 138.92C115.962 139.72 114.922 140.867 114.176 142.36C113.429 143.8 113.056 145.507 113.056 147.48V149.8C113.056 151.933 113.482 153.773 114.336 155.32C115.242 156.867 116.522 158.067 118.176 158.92C119.829 159.72 121.802 160.12 124.096 160.12C126.229 160.12 128.042 159.827 129.536 159.24C131.082 158.6 132.602 157.64 134.096 156.36L142.096 164.68C140.016 166.973 137.456 168.733 134.416 169.96C131.376 171.133 127.776 171.72 123.616 171.72ZM177.532 171V162.92L176.492 160.92V146.04C176.492 143.64 175.745 141.8 174.252 140.52C172.812 139.187 170.492 138.52 167.292 138.52C165.212 138.52 163.105 138.867 160.972 139.56C158.839 140.2 157.025 141.107 155.532 142.28L150.412 131.96C152.865 130.36 155.799 129.133 159.212 128.28C162.679 127.373 166.119 126.92 169.532 126.92C176.572 126.92 182.012 128.547 185.852 131.8C189.745 135 191.692 140.04 191.692 146.92V171H177.532ZM164.732 171.72C161.265 171.72 158.332 171.133 155.932 169.96C153.532 168.787 151.692 167.187 150.412 165.16C149.185 163.133 148.572 160.867 148.572 158.36C148.572 155.693 149.239 153.4 150.572 151.48C151.959 149.507 154.065 148.013 156.892 147C159.719 145.933 163.372 145.4 167.852 145.4H178.092V153.32H169.932C167.479 153.32 165.745 153.72 164.732 154.52C163.772 155.32 163.292 156.387 163.292 157.72C163.292 159.053 163.799 160.12 164.812 160.92C165.825 161.72 167.212 162.12 168.972 162.12C170.625 162.12 172.119 161.72 173.452 160.92C174.839 160.067 175.852 158.787 176.492 157.08L178.572 162.68C177.772 165.667 176.199 167.933 173.852 169.48C171.559 170.973 168.519 171.72 164.732 171.72ZM257.766 126.92C261.126 126.92 264.113 127.613 266.726 129C269.393 130.333 271.473 132.413 272.966 135.24C274.513 138.067 275.286 141.72 275.286 146.2V171H260.086V148.68C260.086 145.587 259.5 143.347 258.326 141.96C257.153 140.52 255.553 139.8 253.526 139.8C252.086 139.8 250.78 140.147 249.606 140.84C248.433 141.533 247.526 142.6 246.886 144.04C246.246 145.427 245.926 147.24 245.926 149.48V171H230.726V148.68C230.726 145.587 230.14 143.347 228.966 141.96C227.846 140.52 226.246 139.8 224.166 139.8C222.673 139.8 221.34 140.147 220.166 140.84C219.046 141.533 218.14 142.6 217.446 144.04C216.806 145.427 216.486 147.24 216.486 149.48V171H201.286V127.64H215.766V139.72L212.886 136.28C214.486 133.187 216.673 130.867 219.446 129.32C222.22 127.72 225.313 126.92 228.726 126.92C232.62 126.92 236.033 127.933 238.966 129.96C241.953 131.933 243.953 135.027 244.966 139.24L240.006 138.2C241.553 134.68 243.873 131.933 246.966 129.96C250.113 127.933 253.713 126.92 257.766 126.92Z" fill="white"/>
<path d="M346.321 115H362.161V171H346.321V115ZM324.721 171H308.881V115H324.721V171ZM347.441 149.16H323.601V136.04H347.441V149.16ZM394.374 171.72C389.628 171.72 385.414 170.76 381.734 168.84C378.054 166.92 375.148 164.28 373.014 160.92C370.934 157.507 369.894 153.613 369.894 149.24C369.894 144.867 370.934 141 373.014 137.64C375.148 134.28 378.054 131.667 381.734 129.8C385.414 127.88 389.628 126.92 394.374 126.92C399.121 126.92 403.334 127.88 407.014 129.8C410.748 131.667 413.654 134.28 415.734 137.64C417.814 141 418.854 144.867 418.854 149.24C418.854 153.613 417.814 157.507 415.734 160.92C413.654 164.28 410.748 166.92 407.014 168.84C403.334 170.76 399.121 171.72 394.374 171.72ZM394.374 159.64C396.134 159.64 397.681 159.24 399.014 158.44C400.401 157.64 401.494 156.467 402.294 154.92C403.094 153.32 403.494 151.427 403.494 149.24C403.494 147.053 403.094 145.213 402.294 143.72C401.494 142.173 400.401 141 399.014 140.2C397.681 139.4 396.134 139 394.374 139C392.668 139 391.121 139.4 389.734 140.2C388.401 141 387.308 142.173 386.454 143.72C385.654 145.213 385.254 147.053 385.254 149.24C385.254 151.427 385.654 153.32 386.454 154.92C387.308 156.467 388.401 157.64 389.734 158.44C391.121 159.24 392.668 159.64 394.374 159.64ZM444.136 171.72C440.616 171.72 437.442 171.027 434.616 169.64C431.842 168.253 429.656 166.093 428.056 163.16C426.509 160.173 425.736 156.413 425.736 151.88V127.64H440.936V149.4C440.936 152.76 441.549 155.16 442.776 156.6C444.056 158.04 445.842 158.76 448.136 158.76C449.629 158.76 450.989 158.413 452.216 157.72C453.442 157.027 454.429 155.933 455.176 154.44C455.922 152.893 456.296 150.92 456.296 148.52V127.64H471.496V171H457.016V158.76L459.816 162.2C458.322 165.4 456.162 167.8 453.336 169.4C450.509 170.947 447.442 171.72 444.136 171.72ZM497.046 171.72C493.366 171.72 489.766 171.293 486.246 170.44C482.78 169.587 479.98 168.52 477.846 167.24L482.406 156.84C484.433 158.067 486.806 159.053 489.526 159.8C492.246 160.493 494.913 160.84 497.526 160.84C500.086 160.84 501.846 160.573 502.806 160.04C503.82 159.507 504.326 158.787 504.326 157.88C504.326 157.027 503.846 156.413 502.886 156.04C501.98 155.613 500.753 155.293 499.206 155.08C497.713 154.867 496.06 154.627 494.246 154.36C492.433 154.093 490.593 153.747 488.726 153.32C486.913 152.84 485.233 152.147 483.686 151.24C482.193 150.28 480.993 149 480.086 147.4C479.18 145.8 478.726 143.773 478.726 141.32C478.726 138.547 479.526 136.093 481.126 133.96C482.78 131.773 485.18 130.067 488.326 128.84C491.473 127.56 495.313 126.92 499.846 126.92C502.886 126.92 505.953 127.24 509.046 127.88C512.193 128.467 514.833 129.373 516.966 130.6L512.406 140.92C510.273 139.693 508.14 138.867 506.006 138.44C503.873 137.96 501.846 137.72 499.926 137.72C497.366 137.72 495.553 138.013 494.486 138.6C493.473 139.187 492.966 139.907 492.966 140.76C492.966 141.613 493.42 142.28 494.326 142.76C495.233 143.187 496.433 143.533 497.926 143.8C499.473 144.013 501.153 144.253 502.966 144.52C504.78 144.733 506.593 145.08 508.406 145.56C510.273 146.04 511.953 146.76 513.446 147.72C514.993 148.627 516.22 149.88 517.126 151.48C518.033 153.027 518.486 155.027 518.486 157.48C518.486 160.147 517.66 162.547 516.006 164.68C514.406 166.813 512.006 168.52 508.806 169.8C505.66 171.08 501.74 171.72 497.046 171.72ZM547.756 171.72C542.636 171.72 538.156 170.76 534.316 168.84C530.53 166.867 527.57 164.2 525.436 160.84C523.356 157.427 522.316 153.56 522.316 149.24C522.316 144.92 523.33 141.08 525.356 137.72C527.436 134.307 530.29 131.667 533.916 129.8C537.543 127.88 541.623 126.92 546.156 126.92C550.423 126.92 554.316 127.8 557.836 129.56C561.356 131.267 564.156 133.8 566.236 137.16C568.316 140.52 569.356 144.6 569.356 149.4C569.356 149.933 569.33 150.547 569.276 151.24C569.223 151.933 569.17 152.573 569.116 153.16H534.796V145.16H561.036L555.276 147.4C555.33 145.427 554.956 143.72 554.156 142.28C553.41 140.84 552.343 139.72 550.956 138.92C549.623 138.12 548.05 137.72 546.236 137.72C544.423 137.72 542.823 138.12 541.436 138.92C540.103 139.72 539.063 140.867 538.316 142.36C537.57 143.8 537.196 145.507 537.196 147.48V149.8C537.196 151.933 537.623 153.773 538.476 155.32C539.383 156.867 540.663 158.067 542.316 158.92C543.97 159.72 545.943 160.12 548.236 160.12C550.37 160.12 552.183 159.827 553.676 159.24C555.223 158.6 556.743 157.64 558.236 156.36L566.236 164.68C564.156 166.973 561.596 168.733 558.556 169.96C555.516 171.133 551.916 171.72 547.756 171.72ZM577.484 150.6L574.524 115H592.604L589.564 150.6H577.484ZM583.564 171.72C580.898 171.72 578.711 170.893 577.004 169.24C575.298 167.587 574.444 165.613 574.444 163.32C574.444 160.973 575.298 159.027 577.004 157.48C578.711 155.88 580.898 155.08 583.564 155.08C586.231 155.08 588.391 155.88 590.044 157.48C591.751 159.027 592.604 160.973 592.604 163.32C592.604 165.613 591.751 167.587 590.044 169.24C588.391 170.893 586.231 171.72 583.564 171.72Z" fill="black"/>
</svg>
