<svg width="716" height="186" viewBox="0 0 716 186" fill="none" xmlns="http://www.w3.org/2000/svg">
<path d="M0.64 13.2L4.6 1.896H5.944L1.984 13.2H0.64ZM21.8975 12V3.6H25.3535C26.0975 3.6 26.7335 3.72 27.2615 3.96C27.7975 4.2 28.2095 4.544 28.4975 4.992C28.7855 5.44 28.9295 5.972 28.9295 6.588C28.9295 7.204 28.7855 7.736 28.4975 8.184C28.2095 8.632 27.7975 8.976 27.2615 9.216C26.7335 9.456 26.0975 9.576 25.3535 9.576H22.7615L23.4575 8.844V12H21.8975ZM23.4575 9.012L22.7615 8.256H25.2815C25.9695 8.256 26.4855 8.112 26.8295 7.824C27.1815 7.528 27.3575 7.116 27.3575 6.588C27.3575 6.052 27.1815 5.64 26.8295 5.352C26.4855 5.064 25.9695 4.92 25.2815 4.92H22.7615L23.4575 4.152V9.012ZM36.4874 12V3.6H39.9434C40.6874 3.6 41.3234 3.72 41.8514 3.96C42.3874 4.2 42.7994 4.544 43.0874 4.992C43.3754 5.44 43.5194 5.972 43.5194 6.588C43.5194 7.204 43.3754 7.736 43.0874 8.184C42.7994 8.624 42.3874 8.964 41.8514 9.204C41.3234 9.436 40.6874 9.552 39.9434 9.552H37.3514L38.0474 8.844V12H36.4874ZM41.9834 12L39.8594 8.952H41.5274L43.6634 12H41.9834ZM38.0474 9.012L37.3514 8.268H39.8714C40.5594 8.268 41.0754 8.12 41.4194 7.824C41.7714 7.528 41.9474 7.116 41.9474 6.588C41.9474 6.052 41.7714 5.64 41.4194 5.352C41.0754 5.064 40.5594 4.92 39.8714 4.92H37.3514L38.0474 4.152V9.012ZM55.2007 12.12C54.5447 12.12 53.9407 12.012 53.3887 11.796C52.8367 11.58 52.3567 11.28 51.9487 10.896C51.5407 10.504 51.2247 10.048 51.0007 9.528C50.7767 9 50.6647 8.424 50.6647 7.8C50.6647 7.176 50.7767 6.604 51.0007 6.084C51.2247 5.556 51.5407 5.1 51.9487 4.716C52.3567 4.324 52.8367 4.02 53.3887 3.804C53.9407 3.588 54.5407 3.48 55.1887 3.48C55.8447 3.48 56.4447 3.588 56.9887 3.804C57.5407 4.02 58.0207 4.324 58.4287 4.716C58.8367 5.1 59.1527 5.556 59.3767 6.084C59.6007 6.604 59.7127 7.176 59.7127 7.8C59.7127 8.424 59.6007 9 59.3767 9.528C59.1527 10.056 58.8367 10.512 58.4287 10.896C58.0207 11.28 57.5407 11.58 56.9887 11.796C56.4447 12.012 55.8487 12.12 55.2007 12.12ZM55.1887 10.752C55.6127 10.752 56.0047 10.68 56.3647 10.536C56.7247 10.392 57.0367 10.188 57.3007 9.924C57.5647 9.652 57.7687 9.34 57.9127 8.988C58.0647 8.628 58.1407 8.232 58.1407 7.8C58.1407 7.368 58.0647 6.976 57.9127 6.624C57.7687 6.264 57.5647 5.952 57.3007 5.688C57.0367 5.416 56.7247 5.208 56.3647 5.064C56.0047 4.92 55.6127 4.848 55.1887 4.848C54.7647 4.848 54.3727 4.92 54.0127 5.064C53.6607 5.208 53.3487 5.416 53.0767 5.688C52.8127 5.952 52.6047 6.264 52.4527 6.624C52.3087 6.976 52.2367 7.368 52.2367 7.8C52.2367 8.224 52.3087 8.616 52.4527 8.976C52.6047 9.336 52.8127 9.652 53.0767 9.924C53.3407 10.188 53.6527 10.392 54.0127 10.536C54.3727 10.68 54.7647 10.752 55.1887 10.752ZM71.2543 12.12C70.6143 12.12 70.0183 12.016 69.4663 11.808C68.9223 11.592 68.4463 11.292 68.0383 10.908C67.6383 10.516 67.3263 10.056 67.1023 9.528C66.8783 9 66.7663 8.424 66.7663 7.8C66.7663 7.176 66.8783 6.6 67.1023 6.072C67.3263 5.544 67.6423 5.088 68.0503 4.704C68.4583 4.312 68.9343 4.012 69.4783 3.804C70.0223 3.588 70.6183 3.48 71.2663 3.48C71.9543 3.48 72.5823 3.6 73.1503 3.84C73.7183 4.072 74.1983 4.42 74.5903 4.884L73.5823 5.832C73.2783 5.504 72.9383 5.26 72.5623 5.1C72.1863 4.932 71.7783 4.848 71.3383 4.848C70.8983 4.848 70.4943 4.92 70.1263 5.064C69.7663 5.208 69.4503 5.412 69.1783 5.676C68.9143 5.94 68.7063 6.252 68.5543 6.612C68.4103 6.972 68.3383 7.368 68.3383 7.8C68.3383 8.232 68.4103 8.628 68.5543 8.988C68.7063 9.348 68.9143 9.66 69.1783 9.924C69.4503 10.188 69.7663 10.392 70.1263 10.536C70.4943 10.68 70.8983 10.752 71.3383 10.752C71.7783 10.752 72.1863 10.672 72.5623 10.512C72.9383 10.344 73.2783 10.092 73.5823 9.756L74.5903 10.716C74.1983 11.172 73.7183 11.52 73.1503 11.76C72.5823 12 71.9503 12.12 71.2543 12.12ZM83.525 7.092H87.701V8.376H83.525V7.092ZM83.645 10.692H88.385V12H82.085V3.6H88.217V4.908H83.645V10.692ZM98.7281 12.12C98.0721 12.12 97.4441 12.028 96.8441 11.844C96.2441 11.652 95.7681 11.408 95.4161 11.112L95.9561 9.9C96.2921 10.164 96.7081 10.384 97.2041 10.56C97.7001 10.736 98.2081 10.824 98.7281 10.824C99.1681 10.824 99.5241 10.776 99.7961 10.68C100.068 10.584 100.268 10.456 100.396 10.296C100.524 10.128 100.588 9.94 100.588 9.732C100.588 9.476 100.496 9.272 100.312 9.12C100.128 8.96 99.8881 8.836 99.5921 8.748C99.3041 8.652 98.9801 8.564 98.6201 8.484C98.2681 8.404 97.9121 8.312 97.5521 8.208C97.2001 8.096 96.8761 7.956 96.5801 7.788C96.2921 7.612 96.0561 7.38 95.8721 7.092C95.6881 6.804 95.5961 6.436 95.5961 5.988C95.5961 5.532 95.7161 5.116 95.9561 4.74C96.2041 4.356 96.5761 4.052 97.0721 3.828C97.5761 3.596 98.2121 3.48 98.9801 3.48C99.4841 3.48 99.9841 3.544 100.48 3.672C100.976 3.8 101.408 3.984 101.776 4.224L101.284 5.436C100.908 5.212 100.52 5.048 100.12 4.944C99.7201 4.832 99.3361 4.776 98.9681 4.776C98.5361 4.776 98.1841 4.828 97.9121 4.932C97.6481 5.036 97.4521 5.172 97.3241 5.34C97.2041 5.508 97.1441 5.7 97.1441 5.916C97.1441 6.172 97.2321 6.38 97.4081 6.54C97.5921 6.692 97.8281 6.812 98.1161 6.9C98.4121 6.988 98.7401 7.076 99.1001 7.164C99.4601 7.244 99.8161 7.336 100.168 7.44C100.528 7.544 100.852 7.68 101.14 7.848C101.436 8.016 101.672 8.244 101.848 8.532C102.032 8.82 102.124 9.184 102.124 9.624C102.124 10.072 102 10.488 101.752 10.872C101.512 11.248 101.14 11.552 100.636 11.784C100.132 12.008 99.4961 12.12 98.7281 12.12ZM112.275 12.12C111.619 12.12 110.991 12.028 110.391 11.844C109.791 11.652 109.315 11.408 108.963 11.112L109.503 9.9C109.839 10.164 110.255 10.384 110.751 10.56C111.247 10.736 111.755 10.824 112.275 10.824C112.715 10.824 113.071 10.776 113.343 10.68C113.615 10.584 113.815 10.456 113.943 10.296C114.071 10.128 114.135 9.94 114.135 9.732C114.135 9.476 114.043 9.272 113.859 9.12C113.675 8.96 113.435 8.836 113.139 8.748C112.851 8.652 112.527 8.564 112.167 8.484C111.815 8.404 111.459 8.312 111.099 8.208C110.747 8.096 110.423 7.956 110.127 7.788C109.839 7.612 109.603 7.38 109.419 7.092C109.235 6.804 109.143 6.436 109.143 5.988C109.143 5.532 109.263 5.116 109.503 4.74C109.751 4.356 110.123 4.052 110.619 3.828C111.123 3.596 111.759 3.48 112.527 3.48C113.031 3.48 113.531 3.544 114.027 3.672C114.523 3.8 114.955 3.984 115.323 4.224L114.831 5.436C114.455 5.212 114.067 5.048 113.667 4.944C113.267 4.832 112.883 4.776 112.515 4.776C112.083 4.776 111.731 4.828 111.459 4.932C111.195 5.036 110.999 5.172 110.871 5.34C110.751 5.508 110.691 5.7 110.691 5.916C110.691 6.172 110.779 6.38 110.955 6.54C111.139 6.692 111.375 6.812 111.663 6.9C111.959 6.988 112.287 7.076 112.647 7.164C113.007 7.244 113.363 7.336 113.715 7.44C114.075 7.544 114.399 7.68 114.687 7.848C114.983 8.016 115.219 8.244 115.395 8.532C115.579 8.82 115.671 9.184 115.671 9.624C115.671 10.072 115.547 10.488 115.299 10.872C115.059 11.248 114.687 11.552 114.183 11.784C113.679 12.008 113.043 12.12 112.275 12.12Z" fill="black"/>
<path d="M570.204 137C570.516 145.244 525.952 153.625 470.667 155.718C415.383 157.812 370.312 152.826 370 144.582" stroke="#D86F38" stroke-width="2" stroke-linecap="round"/>
<path d="M7.27 126L7.27 87.5H11.34L11.34 122.48H32.9V126H7.27ZM49.018 126.275C46.0113 126.275 43.3713 125.652 41.098 124.405C38.8247 123.122 37.0463 121.38 35.763 119.18C34.4797 116.943 33.838 114.395 33.838 111.535C33.838 108.675 34.443 106.145 35.653 103.945C36.8997 101.745 38.5863 100.022 40.713 98.775C42.8763 97.4917 45.2963 96.85 47.973 96.85C50.6863 96.85 53.088 97.4733 55.178 98.72C57.3047 99.93 58.973 101.653 60.183 103.89C61.393 106.09 61.998 108.638 61.998 111.535C61.998 111.718 61.9797 111.92 61.943 112.14C61.943 112.323 61.943 112.525 61.943 112.745H36.808V109.83H59.853L58.313 110.985C58.313 108.895 57.8547 107.043 56.938 105.43C56.058 103.78 54.848 102.497 53.308 101.58C51.768 100.663 49.9897 100.205 47.973 100.205C45.993 100.205 44.2147 100.663 42.638 101.58C41.0613 102.497 39.833 103.78 38.953 105.43C38.073 107.08 37.633 108.968 37.633 111.095V111.7C37.633 113.9 38.1097 115.843 39.063 117.53C40.053 119.18 41.4097 120.482 43.133 121.435C44.893 122.352 46.8913 122.81 49.128 122.81C50.888 122.81 52.5197 122.498 54.023 121.875C55.563 121.252 56.883 120.298 57.983 119.015L60.183 121.545C58.8997 123.085 57.2863 124.258 55.343 125.065C53.4363 125.872 51.328 126.275 49.018 126.275ZM77.4264 126.275C74.713 126.275 72.623 125.542 71.1564 124.075C69.6897 122.608 68.9564 120.537 68.9564 117.86V90.745H72.8614V117.64C72.8614 119.327 73.283 120.628 74.1264 121.545C75.0064 122.462 76.253 122.92 77.8664 122.92C79.5897 122.92 81.0197 122.425 82.1564 121.435L83.5314 124.24C82.7614 124.937 81.8264 125.45 80.7264 125.78C79.663 126.11 78.563 126.275 77.4264 126.275ZM63.7864 100.37V97.125H81.6614V100.37H63.7864ZM87.6151 102.02L87.3401 87.5H90.8051L90.5301 102.02H87.6151ZM106.213 126.275C103.83 126.275 101.575 125.945 99.4483 125.285C97.3216 124.588 95.6533 123.727 94.4433 122.7L96.2033 119.62C97.3766 120.5 98.8799 121.27 100.713 121.93C102.547 122.553 104.472 122.865 106.488 122.865C109.238 122.865 111.218 122.443 112.428 121.6C113.638 120.72 114.243 119.565 114.243 118.135C114.243 117.072 113.895 116.247 113.198 115.66C112.538 115.037 111.658 114.578 110.558 114.285C109.458 113.955 108.23 113.68 106.873 113.46C105.517 113.24 104.16 112.983 102.803 112.69C101.483 112.397 100.273 111.975 99.1733 111.425C98.0733 110.838 97.1749 110.05 96.4783 109.06C95.8183 108.07 95.4883 106.75 95.4883 105.1C95.4883 103.523 95.9283 102.112 96.8083 100.865C97.6883 99.6183 98.9716 98.6467 100.658 97.95C102.382 97.2167 104.472 96.85 106.928 96.85C108.798 96.85 110.668 97.1067 112.538 97.62C114.408 98.0967 115.948 98.7383 117.158 99.545L115.453 102.68C114.17 101.8 112.795 101.177 111.328 100.81C109.862 100.407 108.395 100.205 106.928 100.205C104.325 100.205 102.4 100.663 101.153 101.58C99.9433 102.46 99.3383 103.597 99.3383 104.99C99.3383 106.09 99.6683 106.952 100.328 107.575C101.025 108.198 101.923 108.693 103.023 109.06C104.16 109.39 105.388 109.665 106.708 109.885C108.065 110.105 109.403 110.38 110.723 110.71C112.08 111.003 113.308 111.425 114.408 111.975C115.545 112.488 116.443 113.24 117.103 114.23C117.8 115.183 118.148 116.448 118.148 118.025C118.148 119.712 117.672 121.178 116.718 122.425C115.802 123.635 114.445 124.588 112.648 125.285C110.888 125.945 108.743 126.275 106.213 126.275ZM144.163 126.275C141.78 126.275 139.525 125.945 137.398 125.285C135.272 124.588 133.603 123.727 132.393 122.7L134.153 119.62C135.327 120.5 136.83 121.27 138.663 121.93C140.497 122.553 142.422 122.865 144.438 122.865C147.188 122.865 149.168 122.443 150.378 121.6C151.588 120.72 152.193 119.565 152.193 118.135C152.193 117.072 151.845 116.247 151.148 115.66C150.488 115.037 149.608 114.578 148.508 114.285C147.408 113.955 146.18 113.68 144.823 113.46C143.467 113.24 142.11 112.983 140.753 112.69C139.433 112.397 138.223 111.975 137.123 111.425C136.023 110.838 135.125 110.05 134.428 109.06C133.768 108.07 133.438 106.75 133.438 105.1C133.438 103.523 133.878 102.112 134.758 100.865C135.638 99.6183 136.922 98.6467 138.608 97.95C140.332 97.2167 142.422 96.85 144.878 96.85C146.748 96.85 148.618 97.1067 150.488 97.62C152.358 98.0967 153.898 98.7383 155.108 99.545L153.403 102.68C152.12 101.8 150.745 101.177 149.278 100.81C147.812 100.407 146.345 100.205 144.878 100.205C142.275 100.205 140.35 100.663 139.103 101.58C137.893 102.46 137.288 103.597 137.288 104.99C137.288 106.09 137.618 106.952 138.278 107.575C138.975 108.198 139.873 108.693 140.973 109.06C142.11 109.39 143.338 109.665 144.658 109.885C146.015 110.105 147.353 110.38 148.673 110.71C150.03 111.003 151.258 111.425 152.358 111.975C153.495 112.488 154.393 113.24 155.053 114.23C155.75 115.183 156.098 116.448 156.098 118.025C156.098 119.712 155.622 121.178 154.668 122.425C153.752 123.635 152.395 124.588 150.598 125.285C148.838 125.945 146.693 126.275 144.163 126.275ZM173.879 126.275C170.872 126.275 168.232 125.652 165.959 124.405C163.685 123.122 161.907 121.38 160.624 119.18C159.34 116.943 158.699 114.395 158.699 111.535C158.699 108.675 159.304 106.145 160.514 103.945C161.76 101.745 163.447 100.022 165.574 98.775C167.737 97.4917 170.157 96.85 172.834 96.85C175.547 96.85 177.949 97.4733 180.039 98.72C182.165 99.93 183.834 101.653 185.044 103.89C186.254 106.09 186.859 108.638 186.859 111.535C186.859 111.718 186.84 111.92 186.804 112.14C186.804 112.323 186.804 112.525 186.804 112.745H161.669V109.83H184.714L183.174 110.985C183.174 108.895 182.715 107.043 181.799 105.43C180.919 103.78 179.709 102.497 178.169 101.58C176.629 100.663 174.85 100.205 172.834 100.205C170.854 100.205 169.075 100.663 167.499 101.58C165.922 102.497 164.694 103.78 163.814 105.43C162.934 107.08 162.494 108.968 162.494 111.095V111.7C162.494 113.9 162.97 115.843 163.924 117.53C164.914 119.18 166.27 120.482 167.994 121.435C169.754 122.352 171.752 122.81 173.989 122.81C175.749 122.81 177.38 122.498 178.884 121.875C180.424 121.252 181.744 120.298 182.844 119.015L185.044 121.545C183.76 123.085 182.147 124.258 180.204 125.065C178.297 125.872 176.189 126.275 173.879 126.275ZM205.422 126.275C202.415 126.275 199.775 125.652 197.502 124.405C195.229 123.122 193.45 121.38 192.167 119.18C190.884 116.943 190.242 114.395 190.242 111.535C190.242 108.675 190.847 106.145 192.057 103.945C193.304 101.745 194.99 100.022 197.117 98.775C199.28 97.4917 201.7 96.85 204.377 96.85C207.09 96.85 209.492 97.4733 211.582 98.72C213.709 99.93 215.377 101.653 216.587 103.89C217.797 106.09 218.402 108.638 218.402 111.535C218.402 111.718 218.384 111.92 218.347 112.14C218.347 112.323 218.347 112.525 218.347 112.745H193.212V109.83H216.257L214.717 110.985C214.717 108.895 214.259 107.043 213.342 105.43C212.462 103.78 211.252 102.497 209.712 101.58C208.172 100.663 206.394 100.205 204.377 100.205C202.397 100.205 200.619 100.663 199.042 101.58C197.465 102.497 196.237 103.78 195.357 105.43C194.477 107.08 194.037 108.968 194.037 111.095V111.7C194.037 113.9 194.514 115.843 195.467 117.53C196.457 119.18 197.814 120.482 199.537 121.435C201.297 122.352 203.295 122.81 205.532 122.81C207.292 122.81 208.924 122.498 210.427 121.875C211.967 121.252 213.287 120.298 214.387 119.015L216.587 121.545C215.304 123.085 213.69 124.258 211.747 125.065C209.84 125.872 207.732 126.275 205.422 126.275ZM252.185 96.85C254.532 96.85 256.585 97.3083 258.345 98.225C260.142 99.105 261.535 100.462 262.525 102.295C263.552 104.128 264.065 106.438 264.065 109.225V126H260.16V109.61C260.16 106.567 259.39 104.275 257.85 102.735C256.347 101.158 254.22 100.37 251.47 100.37C249.417 100.37 247.62 100.792 246.08 101.635C244.577 102.442 243.403 103.633 242.56 105.21C241.753 106.75 241.35 108.62 241.35 110.82V126H237.445V85.19H241.35V105.045L240.58 103.56C241.497 101.47 242.963 99.8383 244.98 98.665C246.997 97.455 249.398 96.85 252.185 96.85ZM284.733 126.275C281.946 126.275 279.435 125.652 277.198 124.405C274.998 123.122 273.256 121.38 271.973 119.18C270.69 116.943 270.048 114.395 270.048 111.535C270.048 108.638 270.69 106.09 271.973 103.89C273.256 101.69 274.998 99.9667 277.198 98.72C279.398 97.4733 281.91 96.85 284.733 96.85C287.593 96.85 290.123 97.4733 292.323 98.72C294.56 99.9667 296.301 101.69 297.548 103.89C298.831 106.09 299.473 108.638 299.473 111.535C299.473 114.395 298.831 116.943 297.548 119.18C296.301 121.38 294.56 123.122 292.323 124.405C290.086 125.652 287.556 126.275 284.733 126.275ZM284.733 122.81C286.823 122.81 288.675 122.352 290.288 121.435C291.901 120.482 293.166 119.162 294.083 117.475C295.036 115.752 295.513 113.772 295.513 111.535C295.513 109.262 295.036 107.282 294.083 105.595C293.166 103.908 291.901 102.607 290.288 101.69C288.675 100.737 286.841 100.26 284.788 100.26C282.735 100.26 280.901 100.737 279.288 101.69C277.675 102.607 276.391 103.908 275.438 105.595C274.485 107.282 274.008 109.262 274.008 111.535C274.008 113.772 274.485 115.752 275.438 117.475C276.391 119.162 277.675 120.482 279.288 121.435C280.901 122.352 282.716 122.81 284.733 122.81ZM310.875 126L299.985 97.125H303.725L313.625 123.91H311.92L322.095 97.125H325.45L335.515 123.91H333.81L343.875 97.125H347.45L336.505 126H332.82L323.14 100.81H324.295L314.56 126H310.875Z" fill="black"/>
<path d="M370.309 126L359.419 97.125H363.159L373.059 123.91H371.354L381.529 97.125H384.884L394.949 123.91H393.244L403.309 97.125H406.884L395.939 126H392.254L382.574 100.81H383.729L373.994 126H370.309ZM422.573 126.275C419.567 126.275 416.927 125.652 414.653 124.405C412.38 123.122 410.602 121.38 409.318 119.18C408.035 116.943 407.393 114.395 407.393 111.535C407.393 108.675 407.998 106.145 409.208 103.945C410.455 101.745 412.142 100.022 414.268 98.775C416.432 97.4917 418.852 96.85 421.528 96.85C424.242 96.85 426.643 97.4733 428.733 98.72C430.86 99.93 432.528 101.653 433.738 103.89C434.948 106.09 435.553 108.638 435.553 111.535C435.553 111.718 435.535 111.92 435.498 112.14C435.498 112.323 435.498 112.525 435.498 112.745H410.363V109.83H433.408L431.868 110.985C431.868 108.895 431.41 107.043 430.493 105.43C429.613 103.78 428.403 102.497 426.863 101.58C425.323 100.663 423.545 100.205 421.528 100.205C419.548 100.205 417.77 100.663 416.193 101.58C414.617 102.497 413.388 103.78 412.508 105.43C411.628 107.08 411.188 108.968 411.188 111.095V111.7C411.188 113.9 411.665 115.843 412.618 117.53C413.608 119.18 414.965 120.482 416.688 121.435C418.448 122.352 420.447 122.81 422.683 122.81C424.443 122.81 426.075 122.498 427.578 121.875C429.118 121.252 430.438 120.298 431.538 119.015L433.738 121.545C432.455 123.085 430.842 124.258 428.898 125.065C426.992 125.872 424.883 126.275 422.573 126.275ZM460.481 126L449.591 97.125H453.331L463.231 123.91H461.526L471.701 97.125H475.056L485.121 123.91H483.416L493.481 97.125H497.056L486.111 126H482.426L472.746 100.81H473.901L464.166 126H460.481ZM512.25 126.275C509.464 126.275 506.952 125.652 504.715 124.405C502.515 123.122 500.774 121.38 499.49 119.18C498.207 116.943 497.565 114.395 497.565 111.535C497.565 108.638 498.207 106.09 499.49 103.89C500.774 101.69 502.515 99.9667 504.715 98.72C506.915 97.4733 509.427 96.85 512.25 96.85C515.11 96.85 517.64 97.4733 519.84 98.72C522.077 99.9667 523.819 101.69 525.065 103.89C526.349 106.09 526.99 108.638 526.99 111.535C526.99 114.395 526.349 116.943 525.065 119.18C523.819 121.38 522.077 123.122 519.84 124.405C517.604 125.652 515.074 126.275 512.25 126.275ZM512.25 122.81C514.34 122.81 516.192 122.352 517.805 121.435C519.419 120.482 520.684 119.162 521.6 117.475C522.554 115.752 523.03 113.772 523.03 111.535C523.03 109.262 522.554 107.282 521.6 105.595C520.684 103.908 519.419 102.607 517.805 101.69C516.192 100.737 514.359 100.26 512.305 100.26C510.252 100.26 508.419 100.737 506.805 101.69C505.192 102.607 503.909 103.908 502.955 105.595C502.002 107.282 501.525 109.262 501.525 111.535C501.525 113.772 502.002 115.752 502.955 117.475C503.909 119.162 505.192 120.482 506.805 121.435C508.419 122.352 510.234 122.81 512.25 122.81ZM533.313 126V97.125H537.053V104.99L536.668 103.615C537.474 101.415 538.831 99.7467 540.738 98.61C542.644 97.4367 545.009 96.85 547.833 96.85V100.645C547.686 100.645 547.539 100.645 547.393 100.645C547.246 100.608 547.099 100.59 546.953 100.59C543.909 100.59 541.526 101.525 539.803 103.395C538.079 105.228 537.218 107.85 537.218 111.26V126H533.313ZM556.388 118.52L556.498 113.515L574.483 97.125H579.268L566.563 109.28L564.363 111.15L556.388 118.52ZM553.308 126V85.19H557.213V126H553.308ZM575.693 126L563.648 110.985L566.178 107.96L580.478 126H575.693Z" fill="#D86F38"/>
</svg>
